<svg width="48" height="48" viewBox="0 0 48 48" fill="none" xmlns="http://www.w3.org/2000/svg">
<path opacity="0.5" d="M26.1321 5.50823L26.7057 5.99133L26.7057 5.99133L26.1321 5.50823ZM10.8594 23.6445L11.4331 24.1276L11.4331 24.1276L10.8594 23.6445ZM20.11 26.1107H20.86V25.3607H20.11V26.1107ZM22.7574 41.7139L22.1837 41.2308L22.1837 41.2308L22.7574 41.7139ZM38.03 23.5776L37.4563 23.0945L37.4563 23.0945L38.03 23.5776ZM28.7794 21.1114H28.0294V21.8614H28.7794V21.1114ZM26.7057 5.99133C27.1563 5.45623 28.0294 5.77488 28.0294 6.47443H29.5294C29.5294 4.37577 26.9102 3.41984 25.5584 5.02513L26.7057 5.99133ZM11.4331 24.1276L26.7057 5.99133L25.5584 5.02513L10.2857 23.1614L11.4331 24.1276ZM12.0068 25.3607C11.3691 25.3607 11.0223 24.6154 11.4331 24.1276L10.2857 23.1614C9.05346 24.6247 10.0937 26.8607 12.0068 26.8607V25.3607ZM20.11 25.3607H12.0068V26.8607H20.11V25.3607ZM20.86 40.7477V26.1107H19.36V40.7477H20.86ZM22.1837 41.2308C21.7331 41.7659 20.86 41.4472 20.86 40.7477H19.36C19.36 42.8463 21.9793 43.8023 23.3311 42.197L22.1837 41.2308ZM37.4563 23.0945L22.1837 41.2308L23.3311 42.197L38.6037 24.0607L37.4563 23.0945ZM36.8827 21.8614C37.5204 21.8614 37.8671 22.6068 37.4563 23.0945L38.6037 24.0607C39.836 22.5974 38.7957 20.3614 36.8827 20.3614V21.8614ZM28.7794 21.8614H36.8827V20.3614H28.7794V21.8614ZM28.0294 6.47443V21.1114H29.5294V6.47443H28.0294Z" fill="white"/>
<line x1="24.75" y1="20.75" x2="24.75" y2="26.25" stroke="url(#paint0_linear_137_16105)" stroke-width="1.5" stroke-linecap="round"/>
<defs>
<linearGradient id="paint0_linear_137_16105" x1="23.5" y1="20" x2="23.6756" y2="27.0011" gradientUnits="userSpaceOnUse">
<stop stop-color="#0CFFF0"/>
<stop offset="1" stop-color="#0CFFA7"/>
</linearGradient>
</defs>
</svg>
