<svg width="48" height="48" viewBox="0 0 48 48" fill="none" xmlns="http://www.w3.org/2000/svg">
<path d="M35.668 29.6667V40.6667M35.668 40.6667L40.668 35.6667M35.668 40.6667L30.668 35.6667" stroke="url(#paint0_linear_3544_60977)" stroke-width="1.5" stroke-linecap="round"/>
<g opacity="0.5">
<path d="M11 14V24C11 24 11 29 23 29C35 29 35 24 35 24V14" stroke="white" stroke-width="1.5" stroke-linecap="round" stroke-linejoin="round"/>
<path d="M23 39C11 39 11 34 11 34V24M23 9C35 9 35 14 35 14C35 14 35 19 23 19C11 19 11 14 11 14C11 14 11 9 23 9Z" stroke="white" stroke-width="1.5" stroke-linecap="round" stroke-linejoin="round"/>
</g>
<defs>
<linearGradient id="paint0_linear_3544_60977" x1="30.668" y1="35.6668" x2="40.6757" y2="35.6309" gradientUnits="userSpaceOnUse">
<stop stop-color="#0CFFF0"/>
<stop offset="1" stop-color="#0CFFA7"/>
</linearGradient>
</defs>
</svg>
