<svg width="80" height="80" viewBox="0 0 80 80" fill="none" xmlns="http://www.w3.org/2000/svg">
<g clip-path="url(#clip0_13462_28410)">
<path d="M78.7948 49.6761C73.4523 71.1049 51.7486 84.1461 30.3173 78.8024C8.89482 73.4599 -4.14644 51.7549 1.19856 30.3274C6.53856 8.89614 28.2423 -4.14636 49.6673 1.19614C71.0973 6.53864 84.1373 28.2461 78.7948 49.6761Z" fill="url(#paint0_linear_13462_28410)"/>
<path d="M57.626 34.3013C58.4222 28.9788 54.3698 26.1175 48.8285 24.2088L50.626 16.9988L46.2372 15.905L44.4872 22.925C43.3335 22.6375 42.1485 22.3663 40.971 22.0975L42.7335 15.0312L38.3472 13.9375L36.5485 21.145C35.5935 20.9275 34.656 20.7125 33.746 20.4863L33.751 20.4638L27.6985 18.9525L26.531 23.64C26.531 23.64 29.7872 24.3862 29.7185 24.4325C31.496 24.8763 31.8172 26.0525 31.7635 26.985L29.716 35.1988C29.8385 35.23 29.9972 35.275 30.1722 35.345C30.026 35.3088 29.8697 35.2688 29.7085 35.23L26.8385 46.7363C26.621 47.2762 26.0697 48.0863 24.8272 47.7788C24.871 47.8425 21.6372 46.9825 21.6372 46.9825L19.4585 52.0062L25.1697 53.43C26.2322 53.6963 27.2735 53.975 28.2985 54.2375L26.4822 61.53L30.866 62.6237L32.6647 55.4088C33.8622 55.7338 35.0247 56.0337 36.1622 56.3162L34.3697 63.4975L38.7585 64.5913L40.5747 57.3125C48.0585 58.7287 53.686 58.1575 56.0547 51.3888C57.9635 45.9388 55.9598 42.795 52.0223 40.745C54.8898 40.0838 57.0497 38.1975 57.626 34.3013ZM47.5985 48.3625C46.2422 53.8125 37.066 50.8663 34.091 50.1275L36.501 40.4663C39.476 41.2088 49.016 42.6787 47.5985 48.3625ZM48.956 34.2225C47.7185 39.18 40.081 36.6612 37.6035 36.0437L39.7885 27.2813C42.266 27.8988 50.2448 29.0513 48.956 34.2225Z" fill="white"/>
</g>
<defs>
<linearGradient id="paint0_linear_13462_28410" x1="0.000488281" y1="-0.000854492" x2="0.000488281" y2="8000.08" gradientUnits="userSpaceOnUse">
<stop stop-color="#F9AA4B"/>
<stop offset="1" stop-color="#F7931A"/>
</linearGradient>
<clipPath id="clip0_13462_28410">
<rect width="80" height="80" fill="white"/>
</clipPath>
</defs>
</svg>
